<?xml version="1.0" standalone="no"?>
<!DOCTYPE svg PUBLIC "-//W3C//DTD SVG 20010904//EN"
 "http://www.w3.org/TR/2001/REC-SVG-20010904/DTD/svg10.dtd">
<svg version="1.0" xmlns="http://www.w3.org/2000/svg"
 width="150.000000pt" height="150.000000pt" viewBox="0 0 150.000000 150.000000"
 preserveAspectRatio="xMidYMid meet">

<g transform="translate(0.000000,150.000000) scale(0.100000,-0.100000)"
fill="#000000" stroke="none">
<path d="M824 1318 c-12 -7 -108 -103 -214 -213 -178 -185 -229 -251 -230
-296 0 -9 -45 -58 -99 -108 -54 -50 -106 -106 -115 -125 -9 -19 -16 -59 -16
-89 0 -45 5 -62 27 -89 15 -18 28 -34 29 -36 4 -7 111 -42 130 -42 41 0 122
31 159 60 45 35 52 37 60 10 3 -11 26 -31 49 -45 72 -42 171 -30 252 30 17 13
80 100 140 192 60 92 137 211 171 263 70 105 75 131 45 210 -24 61 -68 90
-138 90 -30 0 -54 1 -54 3 -1 1 -3 20 -6 42 -7 54 -33 105 -65 128 -33 23 -97
31 -125 15z m-244 -461 c43 -21 45 -24 48 -71 3 -53 -13 -81 -55 -97 -29 -11
-83 0 -83 16 0 7 -7 15 -15 19 -40 15 -26 109 21 143 23 17 31 16 84 -10z
m-187 -261 c32 -24 53 -78 46 -115 -9 -44 -35 -68 -86 -79 -40 -9 -43 -8 -72
25 -52 58 -53 105 -6 156 29 30 86 37 118 13z m408 -47 c16 -17 29 -39 29 -49
0 -61 -56 -110 -125 -110 -34 1 -44 6 -67 37 -17 22 -28 49 -28 68 0 31 35 75
70 88 36 13 91 -2 121 -34z"/>
</g>
</svg>
